<svg xmlns="http://www.w3.org/2000/svg" version="1.1" xmlns:xlink="http://www.w3.org/1999/xlink" viewBox="0 0 200 200"><rect width="200" height="200" fill="url('#gradient')"></rect><defs><linearGradient id="gradient" gradientTransform="rotate(45 0.5 0.5)"><stop offset="0%" stop-color="#f92df1"></stop><stop offset="100%" stop-color="#5c159b"></stop></linearGradient></defs><g><g fill="#ffffff" transform="matrix(3.2692444129123803,0,0,3.2692444129123803,6.496092488512829,124.21098083416254)" stroke="#ffffff" stroke-width="0.2"><path d="M1.07-14.22L5.58-14.22L8.75-4.33L11.91-14.22L16.43-14.22L16.43 0L12.99 0L12.99-3.32L13.32-10.12L9.88 0L7.62 0L4.17-10.13L4.50-3.32L4.50 0L1.07 0L1.07-14.22ZM23.56 0.20L23.56 0.20Q21.13 0.20 19.63-1.25Q18.13-2.71 18.13-5.03L18.13-5.03L18.13-5.30Q18.13-6.92 18.73-8.16Q19.33-9.40 20.48-10.08Q21.63-10.76 23.21-10.76L23.21-10.76Q25.44-10.76 26.73-9.38Q28.02-8.00 28.02-5.53L28.02-5.53L28.02-4.25L21.47-4.25Q21.65-3.36 22.25-2.85Q22.84-2.34 23.79-2.34L23.79-2.34Q25.35-2.34 26.23-3.44L26.23-3.44L27.73-1.66Q27.12-0.81 25.99-0.31Q24.86 0.20 23.56 0.20ZM23.19-8.22L23.19-8.22Q21.75-8.22 21.47-6.31L21.47-6.31L24.79-6.31L24.79-6.56Q24.81-7.35 24.39-7.79Q23.97-8.22 23.19-8.22ZM29.37-10.57L32.45-10.57L32.56-9.33Q33.68-10.76 35.58-10.76L35.58-10.76Q37.58-10.76 38.28-9.17L38.28-9.17Q39.36-10.76 41.39-10.76L41.39-10.76Q44.60-10.76 44.69-6.88L44.69-6.88L44.69 0L41.39 0L41.39-6.67Q41.39-7.48 41.11-7.85Q40.84-8.22 40.12-8.22L40.12-8.22Q39.14-8.22 38.66-7.35L38.66-7.35L38.67-7.22L38.67 0L35.37 0L35.37-6.65Q35.37-7.48 35.11-7.85Q34.84-8.22 34.10-8.22L34.10-8.22Q33.15-8.22 32.66-7.35L32.66-7.35L32.66 0L29.37 0L29.37-10.57ZM51.68 0.20L51.68 0.20Q49.25 0.20 47.74-1.25Q46.24-2.71 46.24-5.03L46.24-5.03L46.24-5.30Q46.24-6.92 46.84-8.16Q47.44-9.40 48.59-10.08Q49.75-10.76 51.33-10.76L51.33-10.76Q53.55-10.76 54.84-9.38Q56.13-8.00 56.13-5.53L56.13-5.53L56.13-4.25L49.59-4.25Q49.77-3.36 50.36-2.85Q50.96-2.34 51.90-2.34L51.90-2.34Q53.47-2.34 54.35-3.44L54.35-3.44L55.85-1.66Q55.23-0.81 54.11-0.31Q52.98 0.20 51.68 0.20ZM51.31-8.22L51.31-8.22Q49.86-8.22 49.59-6.31L49.59-6.31L52.91-6.31L52.91-6.56Q52.93-7.35 52.51-7.79Q52.09-8.22 51.31-8.22ZM49.35-11.94L51.27-15.01L54.75-15.01L52.03-11.94L49.35-11.94Z"></path></g></g></svg>